<?xml version="1.0" encoding="UTF-8"?>
<svg width="1024px" height="1024px" viewBox="0 0 1024 1024" version="1.1" xmlns="http://www.w3.org/2000/svg" xmlns:xlink="http://www.w3.org/1999/xlink">
    <!-- Generator: Sketch 50 (54983) - http://www.bohemiancoding.com/sketch -->
    <title>Artboard</title>
    <desc>Created with Sketch.</desc>
    <defs></defs>
    <g id="Artboard" stroke="none" stroke-width="1" fill="none" fill-rule="evenodd">
        <g id="Group" transform="translate(161.000000, 230.000000)" fill="#000000" fill-rule="nonzero">
            <path d="M351.995919,0 C158.691812,0 2,123.433053 2,265.360115 C2,358.760306 69.8625144,432.124622 171.358393,477.123637 C163.605009,507.14812 146.588371,537.625107 119.059777,562.848018 C168.338654,564.834009 223.444811,547.420982 270.038569,506.804552 C296.334783,511.446909 323.757278,513.9692 351.995919,513.9692 C545.291865,513.9692 702,407.295556 702,265.360115 C702,123.433053 545.291865,0 351.995919,0 Z M68.1322856,298.43481 C68.1322856,308.121749 68.9402698,317.657853 70.3440404,327.059882 C54.2659702,306.09386 45.2720447,282.060867 45.2720447,255.245811 C45.2720447,151.982708 177.789621,47.3118138 341.263603,47.3118138 C375.443785,47.3118138 408.252842,51.9457906 438.809337,60.1327623 C419.189194,57.0825498 398.891651,55.4485073 378.137066,55.4485073 C206.926022,55.4485073 68.1322856,164.242216 68.1322856,298.43481 Z M334.693631,300.269966 L379.255185,300.269966 L387.098346,243.958349 L342.528629,243.958349 L334.693631,300.269966 Z M476.69482,243.958349 L430.664203,243.958349 L422.829204,300.269966 L463.47326,300.269966 L463.47326,346.525937 L415.483893,346.525937 L403.241707,436.523967 L359.16984,436.523967 L371.412025,346.525937 L326.85047,346.525937 L314.608285,436.523967 L270.536418,436.523967 L283.26829,346.525937 L243.60361,346.525937 L243.60361,300.269966 L291.103289,300.269966 L298.938288,243.958349 L257.314857,243.958349 L257.314857,197.199595 L305.793912,197.199595 L318.036097,109.715476 L361.610116,109.715476 L349.36793,197.199595 L393.929485,197.199595 L406.677681,109.715476 L450.259861,109.715476 L437.519827,197.199595 L476.69482,197.199595 L476.69482,243.958349" id="Shape"></path>
        </g>
    </g>
</svg>